<svg width="256" height="64" viewBox="0 0 256 64" fill="none" xmlns="http://www.w3.org/2000/svg">
<g clip-path="url(#clip0_16_81)">
<path d="M220.56 63.4659C217.85 63.4659 215.188 63.2108 212.573 62.7007C209.959 62.2224 207.599 61.3934 205.495 60.2137C203.423 59.0658 201.765 57.5194 200.521 55.5745C199.278 53.6295 198.656 51.2223 198.656 48.3527C198.656 45.515 199.373 43.1555 200.808 41.2743C202.275 39.3932 204.236 37.8946 206.691 36.7786C209.146 35.6627 211.92 34.8815 215.013 34.4351C218.137 33.9569 221.358 33.7177 224.674 33.7177C225.503 33.7177 226.332 33.7496 227.161 33.8134C227.99 33.8453 228.755 33.8931 229.456 33.9569C230.158 33.9888 230.716 34.0047 231.13 34.0047C231.864 34.0047 232.358 33.8931 232.613 33.6699C232.9 33.4148 233.043 33.0003 233.043 32.4264C233.043 31.8206 232.964 31.2786 232.804 30.8003C232.645 30.3221 232.421 29.8916 232.135 29.509C231.848 29.1264 231.497 28.8075 231.082 28.5525C230.317 28.0104 229.345 27.6119 228.165 27.3568C226.985 27.1017 225.694 26.9742 224.291 26.9742C222.505 26.9742 220.736 27.1655 218.982 27.5481C217.229 27.9307 215.491 28.3133 213.769 28.696C212.079 29.0786 210.373 29.2699 208.652 29.2699C205.718 29.2699 203.439 28.7916 201.812 27.8351C200.186 26.8467 199.373 25.3321 199.373 23.2915C199.373 21.3785 200.027 19.7046 201.334 18.2698C202.641 16.8031 204.411 15.6074 206.643 14.6828C208.875 13.7262 211.378 13.0248 214.152 12.5784C216.958 12.1001 219.827 11.861 222.761 11.861C228.85 11.861 233.984 12.4987 238.161 13.7741C242.338 15.0494 245.51 17.2495 247.678 20.3741C249.878 23.4669 250.978 27.7554 250.978 33.2395C250.978 34.4511 250.914 35.5192 250.787 36.4439C250.691 37.3685 250.564 38.1816 250.404 38.883C250.277 39.5526 250.149 40.1584 250.022 40.7004C249.926 41.2425 249.878 41.7526 249.878 42.2309C249.878 43.1236 250.181 44.0005 250.787 44.8613C251.425 45.7222 252.142 46.615 252.939 47.5396C253.768 48.4643 254.485 49.4686 255.091 50.5527C255.697 51.6368 256 52.8643 256 54.2354C256 56.2441 255.346 57.7267 254.039 58.6832C252.764 59.6398 251.281 60.118 249.591 60.118C248.252 60.118 247.184 59.7832 246.387 59.1137C245.59 58.4441 244.904 57.7745 244.33 57.1049C243.756 56.4354 243.119 56.1006 242.417 56.1006C241.907 56.1006 241.333 56.26 240.695 56.5789C240.09 56.8977 239.372 57.3441 238.543 57.918C237.555 58.5876 236.264 59.3528 234.669 60.2137C233.107 61.1064 231.178 61.8717 228.882 62.5093C226.587 63.147 223.813 63.4659 220.56 63.4659ZM222.187 51.7005C223.366 51.7005 224.53 51.5411 225.678 51.2223C226.826 50.8715 227.878 50.3933 228.834 49.7875C229.791 49.1498 230.556 48.4005 231.13 47.5396C231.704 46.6788 231.991 45.7222 231.991 44.67C231.991 43.8729 231.736 43.2831 231.226 42.9004C230.716 42.5178 229.966 42.2468 228.978 42.0874C228.021 41.928 226.842 41.8483 225.439 41.8483C223.845 41.8483 222.314 42.0236 220.847 42.3744C219.381 42.6932 218.169 43.2512 217.213 44.0483C216.288 44.8454 215.826 45.9454 215.826 47.3483C215.826 48.3686 216.097 49.1976 216.639 49.8353C217.213 50.473 217.978 50.9513 218.934 51.2701C219.891 51.5571 220.975 51.7005 222.187 51.7005Z" fill="white"/>
<path d="M160.659 59.2572C159.097 59.2572 157.71 59.0499 156.498 58.6354C155.319 58.2528 154.266 57.6948 153.342 56.9615C152.417 56.1962 151.604 55.3035 150.903 54.2832C150.105 53.1035 149.404 51.7643 148.798 50.2658C148.192 48.7353 147.682 47.1411 147.268 45.4831C146.853 43.7932 146.534 42.0715 146.311 40.3178C146.12 38.5323 146.024 36.8105 146.024 35.1526C146.024 29.796 147.188 25.2524 149.516 21.522C151.843 17.7596 155.079 14.89 159.224 12.9132C163.401 10.9364 168.264 9.94794 173.811 9.94794C176.458 9.94794 179.041 10.1711 181.559 10.6175C184.078 11.032 186.342 11.7016 188.351 12.6262C190.391 13.519 192.017 14.6509 193.229 16.0219C194.441 17.3929 195.046 19.035 195.046 20.9481C195.046 22.7655 194.68 24.1843 193.946 25.2046C193.213 26.2249 192.273 26.9423 191.125 27.3568C189.977 27.7394 188.781 27.9307 187.538 27.9307C185.625 27.9307 183.839 27.7075 182.181 27.2612C180.523 26.8148 178.594 26.5916 176.394 26.5916C173.875 26.5916 171.898 27.3249 170.464 28.7916C169.029 30.2583 168.311 32.4583 168.311 35.3917C168.311 36.5076 168.359 37.6076 168.455 38.6917C168.582 39.7758 168.726 40.828 168.885 41.8483C169.045 42.8367 169.204 43.8092 169.364 44.7657C169.523 45.6903 169.651 46.5672 169.746 47.3962C169.874 48.2251 169.938 48.9904 169.938 49.6918C169.938 52.9122 169.188 55.3194 167.69 56.9136C166.223 58.476 163.879 59.2572 160.659 59.2572Z" fill="white"/>
<path d="M106.539 60.9311C101.501 60.9311 97.0374 60.2934 93.1475 59.018C89.2895 57.7426 86.0373 55.8615 83.3909 53.3745C80.7764 50.8875 78.7836 47.7788 77.4126 44.0483C76.0734 40.3178 75.4038 35.9815 75.4038 31.0395C75.4038 29.7322 75.4676 28.4568 75.5951 27.2133C75.7546 25.9698 75.9778 24.7742 76.2647 23.6263C76.5517 22.4785 76.8865 21.4263 77.2691 20.4698C78.2894 18.0784 79.7082 16.2451 81.5256 14.9697C83.3749 13.6943 85.5909 13.0567 88.1735 13.0567C90.7243 13.0567 92.6214 13.4712 93.8649 14.3001C95.1403 15.0973 95.9852 16.1016 96.3997 17.3132C96.8461 18.4929 97.0852 19.6567 97.1171 20.8046C97.1809 21.5698 97.2128 22.351 97.2128 23.1481C97.2446 23.9133 97.2765 24.6785 97.3084 25.4437C97.3722 26.209 97.42 26.9582 97.4519 27.6916C97.5157 28.393 97.5794 29.0467 97.6432 29.6525C97.9302 32.554 98.4244 35.0091 99.1258 37.0178C99.8273 38.9946 100.816 40.4932 102.091 41.5135C103.398 42.5338 105.088 43.0439 107.161 43.0439C109.01 43.0439 110.588 42.6454 111.896 41.8483C113.203 41.0512 114.271 39.8077 115.1 38.1178C115.961 36.4279 116.646 34.2917 117.156 31.709C117.348 30.7844 117.491 29.8757 117.587 28.9829C117.714 28.0583 117.81 27.1496 117.874 26.2568C117.97 25.364 118.081 24.4713 118.209 23.5785C118.368 22.6539 118.559 21.7452 118.783 20.8524C119.42 18.748 120.488 17.0422 121.987 15.7349C123.486 14.4277 125.67 13.7741 128.539 13.7741C131.026 13.7741 132.923 14.4596 134.231 15.8306C135.57 17.1697 136.526 18.9872 137.1 21.2828C137.291 22.2075 137.435 23.1799 137.531 24.2003C137.626 25.1887 137.69 26.209 137.722 27.2612C137.786 28.3133 137.818 29.3815 137.818 30.4655C137.849 31.5496 137.833 32.6337 137.77 33.7177C137.61 40.0309 136.223 45.1961 133.609 49.2136C131.026 53.231 127.423 56.1803 122.8 58.0615C118.209 59.9745 112.788 60.9311 106.539 60.9311Z" fill="white"/>
<path d="M59.9267 59.3528C57.918 59.3528 56.1325 59.034 54.5701 58.3963C53.0078 57.7586 51.6368 56.6426 50.457 55.0484C50.1382 54.4745 49.8353 53.8687 49.5483 53.231C49.2933 52.5933 49.0223 51.9397 48.7353 51.2701C48.4802 50.5686 48.1773 49.8672 47.8266 49.1657C47.4759 48.4324 47.0454 47.6991 46.5353 46.9657C45.9295 46.0411 45.2758 45.3237 44.5744 44.8135C43.8729 44.3034 43.012 43.9367 41.9917 43.7135C41.5772 43.586 40.9874 43.4903 40.2222 43.4265C39.4888 43.3309 38.6758 43.2671 37.783 43.2352C36.9221 43.1715 36.0772 43.1396 35.2482 43.1396C33.9728 43.1396 32.6815 43.1874 31.3742 43.2831C30.0989 43.3468 28.967 43.4584 27.9786 43.6178C27.022 43.7773 26.2409 44.0483 25.6351 44.4309C25.0611 44.8135 24.551 45.3396 24.1046 46.0092C23.6582 46.6788 23.2278 47.444 22.8133 48.3049C22.4307 49.1657 22.0162 50.0585 21.5698 50.9831C21.1553 51.9078 20.7089 52.8165 20.2306 53.7093C19.306 55.1122 18.1103 56.276 16.6437 57.2006C15.2089 58.0934 13.1204 58.5397 10.3784 58.5397C8.08269 58.5397 6.15369 58.205 4.59135 57.5354C3.0609 56.8658 1.91306 55.7499 1.14784 54.1875C0.382613 52.5933 0 50.4889 0 47.8744C0 46.0889 0.207249 44.1758 0.621746 42.1352C1.06813 40.0627 1.64205 37.9424 2.3435 35.7743C3.07684 33.5743 3.8899 31.4221 4.78266 29.3177C5.70731 27.1814 6.63195 25.1727 7.5566 23.2915C8.48125 21.3785 9.35807 19.6727 10.1871 18.1741C11.0479 16.6437 11.7972 15.4002 12.4349 14.4436C13.4871 12.8175 14.7465 11.1595 16.2132 9.46967C17.6799 7.74791 19.3538 6.18557 21.235 4.78266C23.1481 3.34786 25.2843 2.20003 27.6438 1.33914C30.0032 0.446381 32.6018 0 35.4395 0C39.712 0 43.7135 1.0203 47.444 3.0609C51.1745 5.06962 54.5542 7.89139 57.5832 11.5262C58.8267 12.8972 60.0224 14.5712 61.1702 16.548C62.3181 18.493 63.3862 20.6292 64.3746 22.9568C65.3949 25.2524 66.3195 27.6278 67.1485 30.0829C67.9775 32.538 68.6949 34.9772 69.3007 37.4004C69.9384 39.8236 70.4167 42.1193 70.7355 44.2874C71.0544 46.4556 71.2138 48.4165 71.2138 50.1701C71.2138 53.5498 70.1775 55.9252 68.1051 57.2963C66.0645 58.6673 63.3383 59.3528 59.9267 59.3528ZM42.9961 30.5612C43.6338 30.2742 44.0483 29.8916 44.2396 29.4134C44.4628 28.9351 44.5744 28.2177 44.5744 27.2612C44.5744 26.5597 44.4628 25.7307 44.2396 24.7742C44.0483 23.7858 43.7613 22.7814 43.3787 21.7611C43.028 20.7089 42.6135 19.7683 42.1352 18.9393C41.4338 17.664 40.6207 16.6277 39.6961 15.8306C38.7714 15.0335 37.783 14.6349 36.7308 14.6349C35.3598 14.6349 34.0685 15.2089 32.8569 16.3567C31.6771 17.4726 30.6887 18.764 29.8916 20.2306C29.6047 20.7408 29.3018 21.3466 28.9829 22.0481C28.6641 22.7495 28.3771 23.4829 28.122 24.2481C27.867 24.9814 27.6438 25.6988 27.4525 26.4003C27.293 27.0699 27.2133 27.6597 27.2133 28.1699C27.2133 29.2539 27.6757 30.0351 28.6003 30.5134C29.5249 30.9597 30.6887 31.1829 32.0916 31.1829C33.8772 31.1829 35.4554 31.167 36.8265 31.1351C38.1975 31.0713 39.3932 30.9916 40.4135 30.896C41.4657 30.8003 42.3265 30.6887 42.9961 30.5612Z" fill="white"/>
</g>
<defs>
<clipPath id="clip0_16_81">
<rect width="256" height="64" fill="white"/>
</clipPath>
</defs>
</svg>
