<svg width="48" height="48" viewBox="0 0 48 48" fill="none" xmlns="http://www.w3.org/2000/svg">
<g clip-path="url(#clip0_34_2)">
<path d="M48 32H46.8281C46.2978 31.9999 45.7891 31.7891 45.4141 31.4141L43.4141 29.4141C42.6331 28.6332 41.367 28.6332 40.5859 29.4141L38.5859 31.4141C38.2109 31.7891 37.7022 31.9999 37.1719 32H34C32.8954 32 32 32.8954 32 34V37.1719C31.9999 37.7022 31.7891 38.2109 31.4141 38.5859L29.4141 40.5859C28.6332 41.367 28.6332 42.6331 29.4141 43.4141L31.4141 45.4141C31.7891 45.7891 31.9999 46.2978 32 46.8281V48H0V0H48V32Z" fill="black"/>
</g>
<defs>
<clipPath id="clip0_34_2">
<rect width="48" height="48" fill="white"/>
</clipPath>
</defs>
</svg>
